<?xml version="1.0" encoding="utf-8" ?>
<svg baseProfile="tiny" height="100px" version="1.2" width="100px" xmlns="http://www.w3.org/2000/svg" xmlns:ev="http://www.w3.org/2001/xml-events" xmlns:xlink="http://www.w3.org/1999/xlink"><defs /><rect fill="white" height="100%" width="100%" x="0" y="0" /><path d="M20 10 L20 90 Q20 100 30 100 L55 100 Q75 100 75 80 Q75 65 60 58 Q75 50 75 30 Q75 10 55 10 L30 10 Q20 10 20 10 Z" fill="black" /><path d="M35 25 Q50 20 60 25 Q70 30 60 40 Q50 50 35 40 Q30 35 35 25 Z" fill="white" /><path d="M35 60 Q50 65 60 70 Q70 75 60 85 Q50 90 35 85 Q30 80 35 60 Z" fill="white" /></svg>