<?xml version="1.0" encoding="utf-8" ?>
<svg baseProfile="tiny" height="100px" version="1.2" width="100px" xmlns="http://www.w3.org/2000/svg" xmlns:ev="http://www.w3.org/2001/xml-events" xmlns:xlink="http://www.w3.org/1999/xlink"><defs /><rect fill="white" height="100%" width="100%" x="0" y="0" /><path d="M20 90 L20 10 Q20 0 30 0 Q40 0 40 10 L40 50 L70 10 Q75 0 85 0 Q90 0 90 10 Q90 20 85 30 L60 50 L85 70 Q90 80 90 90 Q90 100 80 100 Q75 100 70 90 L40 50 L40 90 Q40 100 30 100 Q20 100 20 90 Z" fill="black" /></svg>